<svg width="1448" height="640" viewBox="0 0 1448 640" fill="none" xmlns="http://www.w3.org/2000/svg">
<path d="M1072.79 0.189453H1075.97C1091.02 0.181686 1101.74 4.79822 1108.83 12.8535L1109.5 13.6436C1116.35 21.9209 1119.71 33.8413 1119.88 48.7314C1119.98 49.2012 1120.01 49.4479 1120.08 49.6387C1120.17 49.8804 1120.2 49.9777 1120.21 50.0557L1120.26 50.8037C1122.55 81.3298 1146.87 104.89 1176.47 105.933C1176.55 105.954 1176.62 105.968 1176.7 105.968L1406.16 105.969L1406.17 105.968C1406.18 105.968 1406.18 105.97 1406.19 105.97L1407.29 106.01C1427.36 107.073 1443.9 126.196 1448 151.432V415.011C1448 415.193 1448 415.376 1448 415.558H1448V576C1448 611.346 1419.35 640 1384 640H603.904V639.998H501.354C466.008 639.998 437.355 611.311 437.354 575.966H437.109V543.233C437.109 507.887 408.455 479.234 373.109 479.233H325.166C325.21 479.159 325.256 479.085 325.301 479.011H64C28.6538 479.011 5.1669e-05 450.357 0 415.011V64C0 28.6538 28.6538 0 64 0H1072.79V0.189453ZM1167.92 102.357L1176.06 103.261L1175.98 103.301C1173.24 103.178 1170.55 102.861 1167.92 102.357H1167.92L1167.91 102.356C1167.92 102.357 1167.92 102.357 1167.92 102.357ZM1126.93 71.8711C1126.9 71.8145 1126.87 71.7569 1126.85 71.7002L1126.81 71.6172C1126.85 71.7014 1126.89 71.7871 1126.93 71.8711ZM1120.83 45.6309C1120.86 45.9567 1120.97 46.2493 1121.02 46.4141C1121.06 46.5258 1121.09 46.6052 1121.1 46.6621L1121.12 46.7871C1121.14 47.8489 1121.18 48.9052 1121.24 49.9521L1121.23 49.8193C1121.19 49.5144 1121.08 49.245 1121.02 49.0889C1120.96 48.918 1120.93 48.8239 1120.92 48.7637L1120.92 48.7109C1120.9 47.6714 1120.87 46.6434 1120.83 45.6309ZM1122 45.8584C1122.06 46.0023 1122.12 46.1586 1122.16 46.2656C1122.23 46.4485 1122.16 46.4031 1122.16 46.7666C1122.17 47.1229 1122.17 47.4793 1122.18 47.834L1122 45.8584C1121.93 45.6896 1121.87 45.5356 1121.87 45.4951C1121.82 44.5138 1121.77 43.5432 1121.69 42.5859L1122 45.8584ZM1436.62 45.4541C1436.61 45.4309 1436.6 45.4079 1436.59 45.3848L1436.61 45.3428L1436.62 45.4541ZM1089.28 0.328125C1089.07 0.280025 1088.85 0.235107 1088.64 0.189453H1088.64L1089.28 0.328125Z" fill="white"/>
</svg>
