<svg width="24" height="24" viewBox="0 0 24 24" fill="none" xmlns="http://www.w3.org/2000/svg">
<path fill-rule="evenodd" clip-rule="evenodd" d="M23.665 7.67497C24.0717 8.78402 20.5071 12.2501 19.7416 13.3844C17.5235 15.888 15.7551 18.7301 13.7239 21.3777C13.7896 21.787 13.3349 22.032 13.1176 22.32C12.7867 22.651 12.2966 23.4089 11.8115 23.4038C11.6549 23.3912 11.526 23.2926 11.4553 23.1613C11.3164 23.1815 11.1698 23.1385 11.0587 22.9895C9.63888 21.0594 8.14835 19.1849 6.70077 17.275C5.42751 15.5444 4.40182 13.6548 3.17404 11.8939C2.34793 10.6838 1.31719 9.64044 0.384983 8.51118C0.218246 8.37475 0.165193 8.19539 0.185404 8.03118C0.0792984 7.91749 0.0312984 7.75581 0.114667 7.57139C0.566877 6.42697 1.50667 5.57307 2.21656 4.59033C3.15635 3.43581 3.80814 2.04381 4.89193 1.01307C5.65488 0.389071 8.76225 0.762965 9.91172 0.697281C12.3976 0.843808 14.8886 0.937281 17.3795 0.843808C19.7088 0.750334 20.3985 0.586123 21.3332 2.94823C21.8031 3.85265 22.1896 4.77475 22.6494 5.6716C22.9728 6.34612 23.4603 6.94739 23.6675 7.67497H23.665Z" fill="#59D6EA"/>
<path fill-rule="evenodd" clip-rule="evenodd" d="M11.5252 22.6004C11.644 22.9036 11.2701 23.2067 11.0073 22.9945C10.2318 21.9739 9.62797 20.8143 8.93071 19.7356C8.50124 19.8013 8.27892 19.0484 8.00103 18.7907C7.45282 18.0303 6.92229 17.2547 6.36145 16.5019C5.13366 14.8926 3.93619 13.2682 2.8145 11.5806C2.17282 10.6105 1.55892 9.67326 0.813659 8.78905C0.598922 8.544 0.141659 8.23579 0.457448 7.89221C0.780817 7.63452 1.22545 7.89221 1.58419 7.93768C2.12229 7.83916 2.67555 8.11705 3.22124 8.12463C4.09787 8.11452 4.96187 8.03621 5.84103 8.08673C6.28061 8.10442 6.72019 8.12968 7.16229 8.13979C7.44019 8.18273 7.84945 8.06905 7.9985 8.37474C8.84482 10.3933 9.04439 12.5937 9.5825 14.7006C9.97408 16.7495 10.6132 18.7352 11.0225 20.7789C11.169 21.3928 11.3459 21.9966 11.5252 22.6004Z" fill="#3AB8CC"/>
<path fill-rule="evenodd" clip-rule="evenodd" d="M23.7632 7.97574C24.1599 8.39511 22.9068 9.34501 22.6618 9.72648C21.679 10.9063 20.7948 12.1644 19.8348 13.3644C18.2205 15.5901 16.5026 17.7374 14.8605 19.9429C14.3047 20.6932 13.7894 21.4738 13.1856 22.1888C12.842 22.5071 12.3544 23.5656 11.839 23.3307C11.4374 23.0503 11.882 22.5728 11.9805 22.2368C12.4403 21.0974 12.991 19.9985 13.4483 18.8591C14.0041 17.4823 14.4386 16.1231 14.911 14.7362C15.3784 13.5766 15.7523 12.3867 16.1262 11.1968C16.0883 10.8204 16.3334 10.4566 16.4142 10.0928C16.6163 9.49658 16.8032 8.89279 17.071 8.32185C16.9043 8.11722 17.071 7.78374 17.3338 7.79132C17.4955 7.7989 17.6622 7.68522 17.8138 7.79385C18.3872 7.81406 18.9582 7.88732 19.5342 7.86206C20.4386 7.85701 21.3456 7.85448 22.2475 7.81406C22.735 7.84943 23.3641 7.62964 23.7658 7.97574H23.7632Z" fill="#3AB8CC"/>
<path fill-rule="evenodd" clip-rule="evenodd" d="M19.3324 0.785806C19.7846 0.727701 19.7796 1.24812 19.5825 1.52096C19.388 1.88223 19.3021 2.32939 19.0166 2.63002C18.8044 3.23886 18.6124 3.85275 18.4179 4.46665C18.1223 5.09317 17.9 7.22286 17.1396 7.26581C16.6621 7.07633 16.5535 6.31086 16.2301 5.92181C15.2196 4.37317 14.209 2.82707 13.0015 1.45275C12.8802 1.47296 12.764 1.41233 12.6958 1.31886C12.5998 1.63465 12.2537 1.97823 12.1122 2.22075C11.5943 2.9357 11.0461 3.62791 10.5156 4.33023C10.0583 4.94665 9.67429 5.59844 9.27514 6.25275C8.96187 6.6317 8.75219 7.52602 8.14082 7.38202C7.86292 7.2456 7.86292 6.88686 7.75177 6.63423C7.32735 5.49991 6.83724 4.38833 6.31935 3.29444C6.01619 2.5997 5.61956 1.95549 5.26587 1.28854C5.1244 0.990438 5.52356 0.684754 5.77366 0.89949C7.02419 0.89949 8.28987 1.14454 9.5505 1.01317C10.5358 0.990438 11.564 0.624122 12.5341 0.83128C12.5972 0.876754 12.6402 0.92728 12.6705 0.977806C12.9206 0.571069 14.2772 0.854017 14.684 0.780754C15.3964 0.780754 16.1593 0.768122 16.8617 0.720122C17.6676 0.697385 18.5796 0.414438 19.3324 0.788333V0.785806Z" fill="#299AAC"/>
<path fill-rule="evenodd" clip-rule="evenodd" d="M15.9665 5.77268C15.9362 5.72468 15.9058 5.67668 15.8755 5.62615C15.4511 5.58826 15.3046 5.03247 15.0595 4.74699C14.5846 3.99415 14.0667 3.26405 13.6423 2.48341C13.3644 1.85941 14.1627 1.65731 14.3067 2.32426C14.7463 2.21815 15.3501 3.66068 15.6431 4.00426C15.9412 4.48173 16.2418 4.96173 16.5374 5.4392C16.7572 5.80552 16.1837 6.14657 15.9665 5.77268Z" fill="#299AAC"/>
<path fill-rule="evenodd" clip-rule="evenodd" d="M8.59273 8.01102C8.13041 7.82912 8.39063 7.40975 8.70389 7.22786C9.03231 6.95249 9.24957 6.58112 9.5022 6.24007C10.447 4.86323 11.4424 3.5167 12.3342 2.10449C12.1195 1.77102 12.5262 1.34407 12.842 1.62702C12.9329 1.62197 13.0239 1.65228 13.0946 1.72049C13.2033 1.82912 13.2235 2.01102 13.1376 2.13733C13.5039 2.90786 13.9334 3.62533 14.4942 4.26954C14.9363 4.9567 15.3178 5.68428 15.919 6.2527C16.1489 6.51039 16.3788 6.7706 16.6719 6.95754C17.0433 7.12175 17.3262 7.56133 16.7982 7.73565C16.3182 7.6927 15.8357 7.71039 15.3557 7.72807C15.194 7.73312 15.0348 7.7407 14.8732 7.74323C14.8277 7.72049 14.7772 7.70533 14.7241 7.70533C14.6458 7.70281 14.57 7.72049 14.4942 7.74828C14.3881 7.74828 14.282 7.74575 14.1759 7.7407C13.4761 7.70533 12.7814 7.58912 12.0765 7.62954C11.4828 7.57902 10.9043 7.69775 10.3283 7.81902C9.84326 7.92007 9.3582 8.0186 8.86557 8.0186C8.77463 8.0186 8.68368 8.01607 8.59526 8.00849L8.59273 8.01102Z" fill="#8CEFFF"/>
<path fill-rule="evenodd" clip-rule="evenodd" d="M10.9268 9.41302C10.9722 9.32208 11.0228 9.23366 11.0758 9.14776C11.0177 9.16545 10.9697 9.18313 10.9217 9.19829C10.9217 9.26902 10.9242 9.33976 10.9268 9.41302ZM10.9141 8.03113C11.283 7.84671 12.1748 7.80881 12.4855 7.71534C12.9554 7.63197 13.4278 7.55113 13.8977 7.47029C14.1478 7.42987 14.2893 7.65723 14.2615 7.85681L14.2287 7.86945C14.0897 7.92503 13.9533 7.98566 13.8169 8.04376C13.5617 8.15492 13.3066 8.26355 13.0615 8.39492L13.0413 8.40502C12.8266 8.4985 12.6346 8.61471 12.4653 8.75113C12.4223 8.78145 12.3794 8.81176 12.339 8.84208C12.0939 9.02902 11.8792 9.24629 11.6922 9.48881C11.4927 9.74902 11.3158 10.0244 11.1946 10.3301C11.0783 10.6282 11.0026 10.9414 10.9596 11.2598C10.9167 11.5705 10.899 11.8838 10.8863 12.1945C10.8737 12.5052 10.8687 12.816 10.8712 13.1292C10.8762 13.733 10.8964 14.3343 10.9268 14.9381V14.981C10.9268 14.9633 10.9268 14.9457 10.9268 14.9305C10.9571 15.5722 10.9924 16.2139 11.0278 16.8556C11.0329 16.9617 11.0379 17.0678 11.0455 17.1713C11.0783 17.712 11.1188 18.2501 11.1642 18.7882C11.2274 19.5511 11.2931 20.3166 11.3512 21.0796C11.3739 21.4029 11.3992 21.7288 11.4396 22.0522C11.4447 22.0901 11.4497 22.128 11.4522 22.1633V22.1684C11.4598 22.2189 11.4649 22.2694 11.4724 22.32V22.3048L11.4775 22.3579L11.4724 22.32C11.4977 22.5145 11.528 22.709 11.5609 22.901C11.4977 22.8758 11.4447 22.8303 11.4068 22.7646C10.9647 20.8749 10.7802 18.9145 10.4543 16.997C10.1992 15.4484 9.82276 13.92 9.67118 12.3537C9.32761 12.144 9.36297 11.6589 9.23918 11.3128C9.10782 10.8707 8.94361 10.4362 8.81476 9.99155C8.75413 9.55955 7.93813 8.03871 8.86782 8.18271H8.88045C9.07245 7.87955 9.56761 7.88208 9.87582 7.96545C10.0855 7.9225 10.2295 8.0766 10.2649 8.2585C10.3078 7.83155 10.7524 7.6926 10.9167 8.0286L10.9141 8.03113Z" fill="#8CEFFF"/>
<path fill-rule="evenodd" clip-rule="evenodd" d="M10.4676 18.4597C8.91392 14.7309 7.92613 9.83996 3.74002 8.21806C3.57581 8.13975 3.35855 8.15743 3.22465 8.02354C3.10086 7.87701 3.23981 7.62438 3.43434 7.66227C3.78044 7.75575 4.10886 7.87448 4.41707 8.01596C4.47771 7.97554 4.55855 7.95533 4.66718 7.96543C4.95265 7.96543 5.2356 7.97301 5.52107 7.98059C5.98086 7.99322 6.44065 8.00838 6.90044 7.98059C6.99897 7.98817 7.10507 7.98564 7.21371 7.98564C7.63055 7.98059 8.08276 7.97806 8.24444 8.42775C8.61328 9.29427 8.79265 10.2265 9.07055 11.1259C9.53034 12.4648 9.83855 13.8492 10.1063 15.2387C10.1695 15.5696 10.2251 15.9031 10.2807 16.2366C10.2276 16.3099 10.2023 16.4033 10.22 16.4943C10.2655 16.7393 10.3211 16.9844 10.3741 17.2294C10.455 17.6008 10.5333 17.9722 10.6167 18.3435C10.652 18.5179 10.6874 18.6947 10.7228 18.869C10.7404 18.9726 10.7581 19.0762 10.7758 19.1772C10.8162 19.3894 10.8541 19.5991 10.8971 19.8113C10.6722 19.3995 10.5055 18.912 10.4676 18.4623V18.4597Z" fill="#299AAC"/>
<path fill-rule="evenodd" clip-rule="evenodd" d="M22.6263 7.86435C23.3842 7.82393 24.4983 7.73804 23.5888 8.75867C22.3661 10.4134 21.0397 11.9873 19.8296 13.6521C17.7176 16.1886 15.9341 18.9726 13.8397 21.5191C13.4785 21.9536 13.1046 22.378 12.7383 22.81C12.5538 23.0273 12.2381 23.6513 11.9576 23.242C11.9298 23.1637 11.9374 23.0854 11.9829 23.0172C12.0031 22.9844 12.0284 22.9515 12.0536 22.9212C13.8524 20.0185 15.6713 17.1056 17.3437 14.122C18.2633 12.4597 19.2082 10.81 20.1757 9.17551C20.3677 8.84456 20.6103 8.53888 20.7366 8.17509C20.7593 8.04625 20.8983 7.96035 21.0246 7.99825C21.1332 7.89972 21.2797 7.86688 21.4212 7.89214C21.8229 7.90477 22.2271 7.87446 22.6288 7.86183L22.6263 7.86435Z" fill="#299AAC"/>
<path fill-rule="evenodd" clip-rule="evenodd" d="M12.0926 7.40969C12.1178 7.40969 12.1431 7.40969 12.1683 7.40969C12.1507 7.40211 12.1304 7.39453 12.1128 7.38695C12.1052 7.39453 12.1001 7.40211 12.0926 7.40716V7.40969ZM14.6315 7.50064C15.1494 8.10443 13.861 7.97558 13.5477 7.96801C12.2795 7.81137 11.0113 7.87201 9.74055 7.94022C9.23529 7.89474 7.73466 8.26611 8.44202 7.29853C9.29845 6.27032 10.2812 5.33811 10.9406 4.15832C11.365 3.44085 11.8121 2.73601 12.3149 2.06906C12.4766 1.86948 12.5246 1.49053 12.8126 1.45264C13.0854 1.47032 13.0778 1.76843 12.9161 1.92C12.6307 2.74864 11.9334 3.43327 11.5595 4.23916C11.1755 5.01222 10.9456 6.21979 11.8298 6.73516C12.661 7.28843 13.6993 7.26316 14.6315 7.50064Z" fill="#DBFAFF"/>
<path fill-rule="evenodd" clip-rule="evenodd" d="M5.51036 2.22571C7.6173 8.25097 10.227 8.11202 5.30825 7.80129C4.32299 7.65981 3.37815 7.96044 2.42067 8.0615C2.28173 8.02613 2.21099 7.85181 2.28678 7.73055C2.39541 7.56634 2.63036 7.57644 2.80215 7.51581C5.81604 6.78318 5.84636 4.02697 4.80804 1.61687C4.64888 1.40465 4.88888 1.08887 5.12131 1.26318C5.31836 1.53855 5.39162 1.90487 5.51288 2.22571H5.51036Z" fill="#8CEFFF"/>
</svg>
