<svg width="24" height="24" viewBox="0 0 24 24" fill="none" xmlns="http://www.w3.org/2000/svg">
<g clip-path="url(#clip0_1845_257)">
<path fill-rule="evenodd" clip-rule="evenodd" d="M17.6472 7.96414C18.7838 8.23552 18.5299 8.9559 17.9864 9.71021C17.7325 10.1073 17.4707 10.4984 17.2208 10.8975C15.2532 14.0864 12.9861 17.1056 10.0863 19.4962C9.3246 20.1806 8.57683 20.8791 7.77749 21.5176C7.25386 21.8788 6.70245 22.6052 6.05584 22.6471C5.70477 22.9105 5.28427 23.4413 4.81617 23.1061C4.09815 22.4855 5.24262 20.6496 5.437 19.8654C5.88526 18.4446 6.30179 17.0118 6.8532 15.6269C7.05154 15.148 7.26972 14.679 7.50576 14.2181C7.64262 13.9766 7.73386 13.6853 7.96791 13.5196C8.14642 12.9409 8.34278 12.3483 8.32691 11.7376C7.69419 11.7017 7.07733 11.586 6.47237 11.4004C6.03005 11.2907 5.4846 11.2348 5.21683 10.8137C4.9808 10.5164 5.08196 9.37297 5.35766 8.89205C5.37551 8.81821 5.39336 8.74438 5.41121 8.67653C5.58576 7.2238 5.95072 5.81497 6.28394 4.39417C6.17683 3.8454 6.46245 3.28067 6.58146 2.74987C6.74212 2.31684 6.78972 1.83393 6.99204 1.42086C7.04758 1.34303 7.117 1.29115 7.19634 1.26122C7.22609 1.1375 7.30344 1.02575 7.4284 0.957901C8.08691 0.666556 8.84857 0.754359 9.54675 0.612678C10.1874 0.554808 10.836 0.600705 11.4727 0.480974C12.2006 0.313351 12.9444 0.275436 13.6882 0.285414C15.1005 0.249495 16.4056 0.299382 15.398 2.05144C15.1144 3.09908 14.7752 4.13076 14.3924 5.14648C14.1742 5.77706 13.8072 6.37172 13.6942 7.03223C14.2991 7.30961 14.9815 7.36548 15.6182 7.54907C16.2806 7.7566 16.9768 7.79452 17.6472 7.96414Z" fill="#FEB904"/>
<path fill-rule="evenodd" clip-rule="evenodd" d="M19.364 6.34154C19.9491 6.50517 20.3359 7.21358 20.3101 7.80225C19.848 9.64411 18.5508 11.1268 17.4142 12.5935C16.5832 13.6331 15.5895 14.5271 14.6275 15.4391C13.4771 16.5127 12.3346 17.5982 11.1147 18.592C11.0969 18.7117 10.9739 18.7756 10.8946 18.8534C10.6863 19.033 10.4761 19.2106 10.2658 19.3882C10.0496 19.5239 9.42086 20.2183 9.22847 20.1425C9.02615 20.2722 8.85359 20.4997 8.62351 20.5615C7.94913 21.0963 7.30847 21.6691 6.65392 22.2258C6.50119 22.3216 6.3683 22.6069 6.16202 22.5112C5.92797 22.3316 6.25723 22.132 6.3802 22.0023C6.67376 21.7269 6.99905 21.4875 7.29855 21.2181C8.0245 20.5955 8.72665 19.9429 9.45061 19.3183C9.9207 18.8374 10.4007 18.3645 10.8946 17.9075C11.1802 17.6122 11.442 17.2909 11.7098 16.9796C12.0549 16.6025 12.4516 16.2712 12.7828 15.8801C13.1002 15.5847 14.0404 14.0442 14.3577 14.0961C14.4787 13.9524 14.5997 13.8087 14.7187 13.6631C14.7604 13.6112 14.804 13.5613 14.8457 13.5094C14.8734 13.1802 15.2027 12.9467 15.3752 12.6793C15.5538 12.5097 15.8771 11.8831 16.1052 11.903C16.4959 11.2984 16.9144 10.7097 17.3607 10.145C17.567 9.83967 18.1898 9.18514 18.16 8.86387C17.9895 8.64236 17.7336 8.58449 17.4698 8.54259C17.1346 8.46277 16.7994 8.39492 16.4602 8.33905C16.0615 8.24326 15.6609 8.16344 15.2622 8.06766C14.9309 7.9619 14.6017 7.83817 14.2466 7.8701C12.6123 7.91001 13.8956 6.10607 14.0602 5.2939C14.2863 4.71919 14.4212 4.15845 14.6235 3.58574C14.927 2.73565 15.2721 1.93545 15.4367 1.05344C15.4685 0.788035 15.5934 0.440817 15.9247 0.600457C16.3333 0.682273 16.7319 0.770076 17.1207 0.92373C17.807 1.22505 18.5369 1.07738 18.1283 2.11106C17.922 2.66581 17.7276 3.22655 17.4777 3.76334C17.2695 4.27419 16.7577 4.76309 16.8708 5.34977C17.0572 5.76883 17.6304 5.85663 18.0093 6.02625C18.4437 6.19786 18.8979 6.27968 19.358 6.33555L19.364 6.34154Z" fill="#FF9C22"/>
<path fill-rule="evenodd" clip-rule="evenodd" d="M16.8104 5.26639C16.8481 5.29633 16.866 5.33624 16.86 5.38812C16.7251 5.78323 15.9357 6.04863 15.5708 6.22823C14.9202 6.5096 14.2676 6.85682 13.6111 7.08829C13.1926 6.97455 13.7539 6.09852 13.8035 5.81716C14.099 5.02893 14.4362 4.25667 14.7476 3.47443C14.9123 2.93564 15.0709 2.39685 15.2792 1.87403C15.3506 1.60264 15.4359 1.33524 15.5331 1.06984C15.5966 0.948111 15.5767 0.728605 15.6481 0.604883C15.6699 0.543022 15.7275 0.49513 15.7929 0.487148C15.8326 0.265646 16.1956 0.333494 16.1281 0.688694C16.1539 0.758537 16.1519 0.856317 16.0944 0.974052C15.6481 2.24918 15.0709 4.43427 16.6954 5.06884C16.7966 5.09478 16.8263 5.18458 16.8085 5.2644L16.8104 5.26639Z" fill="#EA8E1C"/>
<path fill-rule="evenodd" clip-rule="evenodd" d="M19.9865 7.56683C20.8433 7.16773 19.5977 9.24905 19.4549 9.44261C19.6156 9.50846 19.566 9.76788 19.3895 9.76389C19.1177 9.90358 18.8698 10.0872 18.608 10.2448C18.001 10.61 17.41 11.0011 16.8883 11.482C16.68 11.6616 16.5015 11.8113 16.3111 11.9969C16.1881 12.0887 16.1088 12.2942 15.9382 12.2862C15.5594 12.1425 16.0493 11.7913 16.1643 11.6117C16.4995 11.2126 16.8328 10.8075 17.1541 10.3965C17.7055 9.77786 18.1002 8.99562 18.7766 8.50871C19.1871 8.2034 19.6156 7.91804 19.9885 7.56683H19.9865Z" fill="#EA8E1C"/>
<path fill-rule="evenodd" clip-rule="evenodd" d="M13.7302 0.333087C13.8393 0.235307 13.9762 0.281204 14.0178 0.371002C13.7243 0.446832 13.4307 0.522661 13.1372 0.594499C12.8992 0.652369 12.6611 0.708243 12.4251 0.776091C12.199 0.839947 11.9749 0.90979 11.7488 0.975642C11.5187 1.04349 11.2886 1.10934 11.0625 1.18717C10.8383 1.26499 10.6182 1.35279 10.4 1.44858C9.95371 1.64414 9.50148 1.85367 9.12462 2.17095C8.93024 2.33259 8.74974 2.51019 8.57718 2.69378C8.41057 2.87138 8.25586 3.06095 8.12297 3.26649C7.86115 3.66958 7.63702 4.09263 7.43272 4.52765C7.33156 4.74117 7.2304 4.95469 7.12726 5.16621C7.02214 5.38173 6.91305 5.59724 6.81388 5.81675C6.60363 6.27771 6.41321 6.74865 6.24462 7.22757C6.07999 7.69253 5.93718 8.16347 5.79239 8.63441C5.75669 8.75015 5.72098 8.86589 5.68528 8.98163C5.63173 9.10934 5.56429 9.20513 5.46313 9.20513C5.42743 9.20513 5.38578 9.19315 5.34016 9.16322C5.18941 8.82199 5.41751 8.39295 5.44528 8.03177C5.65156 6.98811 5.9709 5.9724 6.17123 4.92875C6.31007 4.2403 6.53421 3.57579 6.70478 2.89732C6.84759 2.25476 6.99635 1.51243 7.55966 1.10535C7.41487 0.798041 7.75206 0.804028 8.03768 0.810014C8.15074 0.81201 8.25784 0.814005 8.32131 0.798041C8.67834 0.7721 9.03536 0.736181 9.39239 0.708243C10.8403 0.630418 12.3041 0.606472 13.7302 0.335083V0.333087Z" fill="#FFD977"/>
<path fill-rule="evenodd" clip-rule="evenodd" d="M13.8844 14.3893C13.8368 14.3754 13.805 14.3534 13.7832 14.3255C13.811 14.2796 13.8407 14.2337 13.8685 14.1858C13.9994 13.9723 14.1303 13.7608 14.2473 13.5413C14.3644 13.3217 14.4754 13.0983 14.5865 12.8768C14.765 12.5235 14.9396 12.1683 15.1141 11.8111C15.3105 11.4599 15.493 11.0948 15.6318 10.7296C15.7052 10.5739 15.7766 10.4183 15.8401 10.2586C15.8857 10.1449 15.9214 10.0292 15.9511 9.90943C15.9829 9.7897 16.0106 9.66797 16.0285 9.54624C16.0463 9.42053 16.0563 9.29281 16.0444 9.1671C16.0325 9.04138 15.9987 8.91965 15.9531 8.79992C15.9115 8.69217 15.8619 8.5864 15.7964 8.48862C15.725 8.38087 15.6358 8.28708 15.5366 8.20526C15.3759 8.07555 15.1994 7.9658 15.0229 7.85605C15.1736 7.82212 15.4136 7.878 15.723 8.15338C16.4093 8.27111 17.1273 8.26912 17.7958 8.47066C18.3273 8.78995 17.6391 9.38461 17.4506 9.72784C16.7247 10.8912 15.8797 11.9708 15.0447 13.0563C14.7789 13.3916 14.5072 13.7209 14.2473 14.0601C14.1382 14.1698 14.0728 14.3874 13.9002 14.3874C13.8963 14.3874 13.8923 14.3874 13.8883 14.3874L13.8844 14.3893Z" fill="#FFD977"/>
<path fill-rule="evenodd" clip-rule="evenodd" d="M4.65028 23.425C4.13656 23.2534 4.61458 22.4792 4.65623 22.114C4.91607 21.202 5.18582 20.2941 5.47342 19.3901C5.97722 17.7638 6.57425 16.1713 7.19507 14.5889C7.52036 13.641 8.09557 12.757 8.23045 11.7533C7.24069 11.7273 5.50714 11.7074 4.98549 10.7176C4.80896 9.81764 5.25722 8.91966 5.34846 8.02567C5.66383 6.13193 6.17954 4.2801 6.604 2.41031C6.73293 2.11098 6.83408 0.891722 7.23276 0.997484C8.11739 0.281096 9.36102 0.422777 10.4281 0.340961C11.5389 0.259145 12.6357 0.143405 13.7425 0.127441C15.609 0.139414 16.1564 0.00571525 15.3432 2.0571C14.8136 3.71337 14.048 5.29382 13.5898 6.97204C13.568 7.13767 13.4985 7.3911 13.7266 7.42901C14.1531 7.55673 14.5954 7.62657 15.0338 7.7024C15.9422 7.86803 16.8625 8.01569 17.7452 8.29506C18.4572 8.49661 18.4433 8.8997 18.0288 9.43849C16.4162 11.7293 14.6529 13.9144 12.8321 16.0396C11.8582 17.0873 10.799 18.0511 9.83706 19.1107C8.84929 20.1564 7.73855 21.0683 6.64565 21.9962C6.01094 22.4951 5.4516 23.2374 4.6483 23.427L4.65028 23.425ZM5.85623 19.448C5.48731 20.6153 5.12631 21.7887 4.82086 22.974C5.54681 22.555 6.09425 21.9364 6.73689 21.4175C8.25623 20.2123 9.60499 18.8254 10.9359 17.4165C12.5604 15.9059 13.9428 14.1619 15.3194 12.4238C16.204 11.2305 17.2136 10.107 17.9495 8.8119C16.5888 8.17533 15.002 8.21325 13.5759 7.77823C12.6615 7.41504 13.6116 5.88249 13.7723 5.23196C14.1947 4.08653 14.6549 2.94111 15.0397 1.78371C15.1468 1.41854 15.3095 1.06134 15.3511 0.682193C15.2995 0.502597 15.0119 0.564458 14.8652 0.53253C13.3339 0.440737 11.8086 0.626319 10.2833 0.734076C9.5435 0.779973 8.78383 0.722103 8.07375 0.975533C7.81788 1.02343 7.5997 1.27087 7.34582 1.26289C6.96896 2.19479 6.83805 3.22048 6.57821 4.19429C6.21524 5.60911 5.89788 7.0339 5.65392 8.47266C5.59045 9.19704 5.15805 9.9693 5.39012 10.6837C6.1835 11.3801 7.36367 11.3242 8.35342 11.3841C9.18846 11.6515 7.67507 14.1299 7.5402 14.7565C6.93326 16.303 6.34813 17.8595 5.85623 19.446V19.448Z" fill="#633728"/>
<path fill-rule="evenodd" clip-rule="evenodd" d="M5.00541 23.2334C4.87846 22.944 5.31086 22.8782 5.48342 22.7584C5.95549 22.523 6.39185 22.2276 6.8302 21.9343C7.58789 21.4394 8.25631 20.8288 8.95251 20.2541C11.414 18.2346 13.7446 16.0435 15.9621 13.7607C17.3426 12.0286 18.8818 10.3883 19.8933 8.39873C20.8553 6.6786 18.5267 6.42717 17.4239 5.99414C16.3191 5.58906 16.6424 5.18397 17.0352 4.32989C17.3585 3.41794 17.9376 2.55588 18.0725 1.59205C17.8543 1.16501 16.3469 0.803822 15.855 0.674113C15.615 0.560369 15.0041 0.648172 15.0319 0.279002C15.0576 0.179227 15.1647 0.115371 15.2639 0.143308C16.1525 0.382769 17.777 0.64019 18.3839 1.3446C18.737 1.98716 17.2652 4.48554 17.0233 5.31767C17.9495 6.06997 19.4471 5.88639 20.2385 6.86419C21.3651 8.24708 18.0348 11.7073 17.174 12.8667C15.133 15.4489 12.5704 17.5641 10.1426 19.7672C8.86127 20.8168 7.62954 21.9423 6.20144 22.7943C5.92375 22.9021 5.16607 23.5247 4.99747 23.2334H5.00541Z" fill="#633728"/>
<path fill-rule="evenodd" clip-rule="evenodd" d="M18.0019 8.93558C17.75 8.67616 18.2062 8.50056 18.3788 8.37883C18.7735 8.13538 19.1464 7.86199 19.5252 7.59459C19.7395 7.44493 19.9418 7.27731 20.1381 7.10569C20.3305 6.95204 20.5685 7.26134 20.3702 7.40901C20.1084 7.62652 18.1844 9.15309 18.0019 8.93358V8.93558Z" fill="#633728"/>
<path fill-rule="evenodd" clip-rule="evenodd" d="M13.224 7.50296C13.0692 6.76263 15.4692 6.14402 16.0226 5.74891C16.2963 5.67907 16.9231 5.09638 17.1215 5.38573C17.1711 5.47154 17.1453 5.60124 17.052 5.64714C16.3876 5.99037 15.7271 6.34158 15.0368 6.63292C14.6322 6.80454 14.1859 6.98413 13.8269 7.22958C13.6107 7.31339 13.4679 7.80828 13.224 7.50496V7.50296Z" fill="#633728"/>
<path fill-rule="evenodd" clip-rule="evenodd" d="M14.2714 4.49352C14.1088 4.24208 14.4717 4.13233 14.6443 4.05051C15.0231 3.88489 15.4 3.70928 15.7689 3.5237C15.8621 3.4778 15.9792 3.53368 16.0188 3.62547C16.1021 3.96471 15.4536 4.04253 15.2413 4.20417C14.9934 4.25605 14.4459 4.71502 14.2734 4.49352H14.2714Z" fill="#633728"/>
<path fill-rule="evenodd" clip-rule="evenodd" d="M14.9519 2.98709C14.6981 2.72169 15.1543 2.55606 15.3506 2.47823C15.5609 2.42036 15.7771 2.24875 15.9972 2.28666C16.4514 2.67579 15.4518 2.77157 15.2415 2.94518C15.1582 3.01303 15.0471 3.06491 14.95 2.98709H14.9519Z" fill="#633728"/>
</g>
<defs>
<clipPath id="clip0_1845_257">
<rect width="17.4545" height="24" fill="white" transform="translate(4.36328)"/>
</clipPath>
</defs>
</svg>
