<svg width="48" height="48" viewBox="0 0 48 48" fill="none" xmlns="http://www.w3.org/2000/svg">
<path d="M8.97947 11.0787C9.11019 11.4447 9.48928 11.6538 10.1167 11.7061C10.7965 11.6277 11.1886 11.4185 11.2932 11.0787C11.2932 10.765 11.0187 10.5427 10.4697 10.412C10.339 10.3859 10.2213 10.3728 10.1167 10.3728C9.51542 10.3728 9.14941 10.5558 9.01869 10.9218C8.99255 11.0002 8.97947 11.0525 8.97947 11.0787ZM29.4501 11.0787C29.6069 11.4185 29.9991 11.6277 30.6265 11.7061C31.3063 11.6538 31.6854 11.4447 31.7638 11.0787C31.7638 10.765 31.5024 10.5427 30.9795 10.412C30.8488 10.3859 30.7311 10.3728 30.6265 10.3728C29.9991 10.3728 29.62 10.5558 29.4893 10.9218C29.4631 11.0002 29.4501 11.0525 29.4501 11.0787ZM27.6854 39.0002C23.6592 38.9741 21.6331 38.0983 21.6069 36.3728C21.6069 35.9806 21.8684 35.0133 22.3912 33.4708C22.888 31.9283 23.2409 30.412 23.4501 28.9218C23.7899 26.3336 23.9599 24.6212 23.9599 23.7846C23.9599 22.2421 23.8161 21.4578 23.5285 21.4316C22.8226 21.4316 21.9337 23.4447 20.8618 27.4708C19.8684 31.2878 19.3716 34.2551 19.3716 36.3728C19.3716 37.3663 18.9272 37.9676 18.0383 38.1767C17.8814 38.2029 17.7246 38.2159 17.5677 38.2159C16.705 38.2159 16.1429 37.8368 15.8814 37.0787C15.803 36.8434 15.7638 36.6081 15.7638 36.3728C15.7638 34.0721 15.2017 30.8826 14.0775 26.8042C13.0579 23.2225 12.2213 21.4316 11.5677 21.4316C11.3063 21.4839 11.1756 22.2682 11.1756 23.7846C11.1756 25.0395 11.3193 26.7519 11.6069 28.9218C11.8161 30.4382 12.3128 32.3336 13.0971 34.6081C13.3586 35.3663 13.4893 35.9545 13.4893 36.3728C13.437 38.1244 11.4108 39.0002 7.41085 39.0002C2.65268 38.9741 0.260519 37.7192 0.234375 35.2355C0.234375 34.2421 0.665748 32.9741 1.52849 31.4316C2.33895 30.0199 2.84875 28.8826 3.0579 28.0199C3.55464 25.8499 3.803 23.3532 3.803 20.5297V19.863C3.803 18.4774 3.64614 17.2094 3.33241 16.0591C3.17555 15.51 2.70496 14.5166 1.92065 13.0787C1.47621 12.2944 1.25398 11.6931 1.25398 11.2748C1.25398 10.3074 2.37817 9.6277 4.62653 9.23554C5.48928 9.07868 6.41738 9.00024 7.41085 9.00024C10.705 9.02639 12.7442 9.8107 13.5285 11.3532C14.2082 12.7127 15.084 15.131 16.1559 18.6081C16.7834 20.5427 17.2932 21.5362 17.6854 21.5885C18.1821 21.5885 18.6788 20.6604 19.1756 18.8042C20.0383 15.6931 20.5612 13.8761 20.7442 13.3532C21.0056 12.595 21.2801 11.9283 21.5677 11.3532C22.3782 9.78456 24.4305 9.00024 27.7246 9.00024C30.4435 9.00024 32.3128 9.43162 33.3324 10.2944C33.6461 10.6081 33.8161 10.9349 33.8422 11.2748C33.8422 11.6931 33.5024 12.4643 32.8226 13.5885C32.2474 14.5558 31.8814 15.3793 31.7246 16.0591C31.4631 17.2617 31.3324 18.595 31.3324 20.0591C31.437 23.6146 31.6592 26.2682 31.9991 28.0199C32.1821 28.9087 32.7311 30.1506 33.6461 31.7453C34.4305 33.1048 34.8226 34.2551 34.8226 35.1963C34.7703 37.7061 32.3912 38.9741 27.6854 39.0002Z" fill="white"/>
<path d="M42.8226 39.0002C40.4174 39.0002 38.8488 38.2551 38.1167 36.765C37.9076 36.2944 37.803 35.8238 37.803 35.3532C37.803 34.0199 38.4174 32.9349 39.6461 32.0983C40.535 31.497 41.5808 31.1963 42.7834 31.1963C44.8226 31.1963 46.2997 31.9283 47.2148 33.3924C47.5808 34.0199 47.7638 34.6734 47.7638 35.3532C47.7638 36.7911 47.0318 37.8368 45.5677 38.4904C44.7834 38.8303 43.8684 39.0002 42.8226 39.0002Z" fill="white"/>
</svg>
