<svg xmlns="http://www.w3.org/2000/svg" xmlns:xlink="http://www.w3.org/1999/xlink" width="80"
    height="80" viewBox="0 0 80 80">
    <defs>
        <linearGradient id="linear-gradient" y1="0.096" x2="1" y2="1"
            gradientUnits="objectBoundingBox">
            <stop offset="0" stop-color="#0bbbf3" />
            <stop offset="1" stop-color="#10f5be" />
        </linearGradient>
    </defs>
    <g id="Group_84" transform="translate(-681 -1130)">
        <rect id="Rectangle_10" width="80" height="80" rx="10" transform="translate(681 1130)"
            fill="url(#linear-gradient)" />
        <g id="Group_63" transform="translate(698.952 1145.329)">
            <path id="Path_29"
                d="M54.678,22.219a.645.645,0,0,1-.238-.046l-4.864-1.935a.645.645,0,0,1-.03-1.186,2.05,2.05,0,1,0-2.764-2.62,1.979,1.979,0,0,0,.005,1.515.645.645,0,0,1-.832.853l-4.883-1.94a.645.645,0,0,1-.361-.839l1.5-3.784a3.339,3.339,0,1,1,2.295-5.783l1.508-3.789a.645.645,0,0,1,.839-.361L59.045,7.15a1.917,1.917,0,0,1,1.072,2.485L55.279,21.808A.645.645,0,0,1,54.678,22.219ZM51.13,19.47l3.186,1.266,4.6-11.574a.632.632,0,0,0-.349-.81L46.98,3.743l-1.7,4.274a.645.645,0,0,1-1.188.026A2.049,2.049,0,1,0,43,10.793a.645.645,0,0,1,.845.835l-1.7,4.27,3.195,1.27a3.345,3.345,0,1,1,5.787,2.3Z"
                transform="translate(-13.094 0)" fill="#fff" stroke="#fff" stroke-width="1" />
            <path id="Path_30"
                d="M59.544,42.561a.645.645,0,0,1-.006-1.29h.006a.645.645,0,0,1,0,1.29Z"
                transform="translate(-20.192 -13.845)" fill="#fff" stroke="#fff" stroke-width="1" />
            <path id="Path_31"
                d="M49.172,42.561a.645.645,0,1,1-.006-1.29h.006a.645.645,0,1,1,0,1.29Z"
                transform="translate(-16.511 -13.845)" fill="#fff" stroke="#fff" stroke-width="1" />
            <path id="Path_32"
                d="M49.164,42.566a.646.646,0,1,1,.258-.054A.632.632,0,0,1,49.164,42.566Z"
                transform="translate(-16.51 -13.847)" fill="#fff" stroke="#fff" stroke-width="1" />
            <path id="Path_33"
                d="M37.719,50.845H4.275A2.275,2.275,0,0,1,2,48.575V15.126a2.272,2.272,0,0,1,2.275-2.263H20.99a.645.645,0,0,1,.645.645V20.2a.645.645,0,0,1-1.1.463,2.79,2.79,0,1,0,0,4.033.645.645,0,0,1,1.1.463v6.037h4.832a4.089,4.089,0,1,1,7.4,0h5.465a.645.645,0,0,1,.645.645V48.575a2.268,2.268,0,0,1-2.263,2.269ZM4.275,14.153a.981.981,0,0,0-.985.973V48.575a.984.984,0,0,0,.985.979H37.719a.977.977,0,0,0,.973-.979v-16.1h-6.03a.645.645,0,0,1-.466-1.091,2.792,2.792,0,1,0-4.817-1.926,2.7,2.7,0,0,0,.774,1.919.645.645,0,0,1-.459,1.1h-6.7a.645.645,0,0,1-.645-.645V26.369a4.082,4.082,0,1,1,0-7.4V14.153Z"
                transform="translate(0 -3.763)" fill="#fff" stroke="#fff" stroke-width="1" />
            <path id="Path_34"
                d="M31.093,49.262a.645.645,0,0,1-.645-.645V41.925a.645.645,0,1,1,1.29-.007v6.7a.645.645,0,0,1-.645.648Z"
                transform="translate(-10.096 -13.847)" fill="#fff" stroke="#fff" stroke-width="1" />
            <path id="Path_35"
                d="M31.1,67.3a.645.645,0,0,1-.645-.645v-6.7a.645.645,0,1,1,1.29,0v6.7a.645.645,0,0,1-.645.645Z"
                transform="translate(-10.099 -20.249)" fill="#fff" stroke="#fff" stroke-width="1" />
            <path id="Path_36"
                d="M27.421,42.561H20.745a.645.645,0,1,1,0-1.29h6.676a.645.645,0,1,1,0,1.29Z"
                transform="translate(-6.424 -13.845)" fill="#fff" stroke="#fff" stroke-width="1" />
            <path id="Path_37"
                d="M9.374,42.567h-6.7a.645.645,0,1,1,0-1.29h6.7a.645.645,0,1,1,0,1.29Z"
                transform="translate(-0.01 -13.847)" fill="#fff" stroke="#fff" stroke-width="1" />
            <path id="Path_38"
                d="M14.992,48.385a4.079,4.079,0,0,1-2.927-6.921.645.645,0,1,1,.925.9,2.791,2.791,0,1,0,4.8,1.94,2.741,2.741,0,0,0-.781-1.935.645.645,0,1,1,.92-.9,4.027,4.027,0,0,1,1.151,2.842,4.089,4.089,0,0,1-4.085,4.079Z"
                transform="translate(-3.163 -13.838)" fill="#fff" stroke="#fff" stroke-width="1" />
            <path id="Path_39"
                d="M33.483,58.335a4.069,4.069,0,0,1-2.838-1.152.645.645,0,1,1,.9-.928,2.789,2.789,0,1,0,.023-4.04.645.645,0,0,1-1.116-.437v-.006a.645.645,0,0,1,.2-.464,4.085,4.085,0,1,1,2.838,7.028Z"
                transform="translate(-10.092 -17.001)" fill="#fff" stroke="#fff" stroke-width="1" />
        </g>
    </g>
</svg>
