<svg xmlns="http://www.w3.org/2000/svg" width="32" height="32" viewBox="0 0 32 32">
    <g id="Group_47" transform="translate(-765 -3681)">
        <rect id="Rectangle_20" width="32" height="32" transform="translate(765 3681)"
            fill="none" />
        <g id="Group_52" transform="translate(757.596 3671.596)">
            <g id="_x31_0.Linkedin" transform="translate(10 10)">
                <path id="Path_17"
                    d="M55.625,53.63V43.812c0-4.826-1.039-8.512-6.669-8.512A5.819,5.819,0,0,0,43.7,38.182h-.067V35.736H38.3V53.63h5.563V44.75c0-2.346.436-4.591,3.318-4.591,2.848,0,2.882,2.647,2.882,4.725V53.6h5.563Z"
                    transform="translate(-28.816 -26.822)" />
                <path id="Path_18" d="M11.3,36.6h5.563V54.495H11.3Z"
                    transform="translate(-10.864 -27.686)" />
                <path id="Path_19"
                    d="M13.217,10a3.234,3.234,0,1,0,3.217,3.217A3.218,3.218,0,0,0,13.217,10Z"
                    transform="translate(-10 -10)" />
            </g>
        </g>
    </g>
</svg>
