<svg xmlns="http://www.w3.org/2000/svg" width="32" height="32" viewBox="0 0 32 32">
    <g id="Group_46" transform="translate(-765 -3681)">
        <rect id="Rectangle_20" width="32" height="32" transform="translate(765 3681)"
            fill="none" />
        <g id="Group_45" transform="translate(10.748 -33.193)">
            <path id="Path_14"
                d="M18.674,180.3a4.813,4.813,0,0,1-5.349,0L.213,171.553Q.1,171.48,0,171.4v14.325a2.945,2.945,0,0,0,2.946,2.946H29.054A2.945,2.945,0,0,0,32,185.727V171.4c-.07.052-.141.1-.214.151Z"
                transform="translate(754.252 3553.504)" fill="#1a1a1a" />
            <path id="Path_15"
                d="M1.253,69.553,14.366,78.3a2.938,2.938,0,0,0,3.268,0l13.113-8.742A2.808,2.808,0,0,0,32,67.211a2.948,2.948,0,0,0-2.945-2.945H2.945A2.949,2.949,0,0,0,0,67.212a2.807,2.807,0,0,0,1.253,2.341Z"
                transform="translate(754.252 3653.944)" fill="#1a1a1a" />
        </g>
    </g>
</svg>
