<svg xmlns="http://www.w3.org/2000/svg" width="70.754" height="47.461" viewBox="0 0 70.754 47.461">
  <defs>
    <linearGradient id="linear-gradient" y1="0.096" x2="1" y2="1">
      <stop offset="0" stop-color="#0bbbf3"/>
      <stop offset="1" stop-color="#10f5be"/>
    </linearGradient>
  </defs>
  <g id="Group_59" transform="translate(-95.132 -133.99)">
    <g id="Group_60" >
      <path id="Path_22"  d="M105.5,173.856q-3.8-2.846-5.926,3.437L95.3,194.482a2.916,2.916,0,0,0,1.542,3.676,5.019,5.019,0,0,0,2.37.711,3.845,3.845,0,0,0,1.422-.236q.595-.236,2.845-4.979,1.9-4.149,3.437-7.7a31.967,31.967,0,0,0,2.134-4.859q.713-1.78.592-.356-.118,5.216-.475,8.3a3.738,3.738,0,0,0,1.422,3.437q1.3,1.539,3.081-.356a4.754,4.754,0,0,0,1.542-1.542,17.671,17.671,0,0,1,1.659-2.609,52.241,52.241,0,0,0,3.2-4.5,32.688,32.688,0,0,0,2.014-2.845l.831-1.3q.949-1.185.356,1.9-.831,3.437-1.067,4.5a13.362,13.362,0,0,0-.236,4.267,5.308,5.308,0,0,0,2.609,3.32q2.846,1.661,5.809-.711,1.185-1.067,2.845-2.609,2.37-2.37,4.623-4.859a39.982,39.982,0,0,0,2.725-3.32,21.9,21.9,0,0,0,2.014-3.437q.118-.595.236-1.067.118-.949-.831-.711l-5.334,5.454q-7.114,6.873-9.01,6.876-.831,0-.947-.947a6.6,6.6,0,0,1,.12-2.725q.472-2.134,1.067-4.031a37.618,37.618,0,0,0,1.186-4.5,3.468,3.468,0,0,0-1.778-3.32q-1.78-1.662-2.845-.356a17.214,17.214,0,0,0-3.081,3.2q-1.9,2.134-3.792,4.5a21.22,21.22,0,0,0-2.014,2.489l-1.422,1.778q-.354,0-.236-1.3l.236-10.313q.354-3.2-1.9-3.32-2.606-.236-4.031,2.845-2.728,5.57-3.081,6.4-.949,1.067-3.556,7.7l2.964-9.366a20.522,20.522,0,0,0,.947-3.792Z" transform="translate(0 -25.55)" fill="url(#linear-gradient)"/>
      <path id="_1" d="M241.579,165.093q-4.149-1.78-8.771,4.743a16.343,16.343,0,0,0-1.542,5.1q-.949,4.267,4.148,13.158l-2.37,1.422q-5.688,3.319-6.876,5.57-2.728,4.5.711,6.876,4.031,2.964,10.669-1.067,8.653-5.334,4.623-12.683,13.157-8.535,15.292-14.817,1.185-3.555-1.067-1.3a64.655,64.655,0,0,1-13.514,11.38l-2.725,1.778q-6.4-9.956-1.3-13.75,5.216-3.555,2.725-6.4Zm-4.148,25.96q1.78,3.437-2.845,6.4-3.2,1.421-4.148.831a1.8,1.8,0,0,1-.356-2.37q1.067-1.421,4.859-3.32A26.4,26.4,0,0,0,237.431,191.054Z" transform="translate(-91.985 -21.767)" fill="url(#linear-gradient)"/>
    </g>
    <g id="Group_102" >
      <path id="_11" d="M298.35,149.282l.5-.2.662.63-.175.507.143.137.6-1.726-.178-.169-1.691.688.14.134Zm1.3-.528.213-.1.012.012-.082.219-.227.656-.557-.531.641-.259Z" transform="translate(-143.882 -10.252)" fill="url(#linear-gradient)"/>
      <g id="Group_101">
        <path id="Path_23" d="M235.195,144.4l-.676-.959-.134-.178.012-.009.216.122,1.07.557.175-.125-.166-1.2-.044-.242.012-.009.125.187.676.956.143-.1-.959-1.358-.2.14.172,1.207.058.335-.009.006-.3-.166L234.288,143l-.2.137.959,1.358Z" transform="translate(-98.452 -5.703)" fill="url(#linear-gradient)"/>
        <path id="_1_0" d="M243.629,141.325l-.017-.536.819-.405.417.341.178-.087-1.414-1.157-.222.108.061,1.825.175-.085Zm-.047-1.4-.015-.233.015-.006.178.152.536.437-.691.341Z" transform="translate(-105.041 -3.89)" fill="url(#linear-gradient)"/>
        <path id="_2" d="M248.861,138.029l-.248-.717,1.011-.35.248.717.166-.058-.545-1.571-.166.055.245.705-1.011.35-.245-.705-.166.058.545,1.571Z" transform="translate(-108.413 -1.46)" fill="url(#linear-gradient)"/>
        <path id="_3" d="M255.415,137.021l-.373-1.621-.172.041.373,1.621Z" transform="translate(-113.175 -0.999)" fill="url(#linear-gradient)"/>
        <path id="_4" d="M257.913,135.907l-.14-1.163-.032-.222.015,0,.131.21.679,1,.21-.026.423-1.131.076-.233.015,0,.023.222.14,1.163.175-.02-.2-1.65-.242.029-.423,1.143-.108.324h-.012l-.181-.289-.685-1.009-.239.026.2,1.653Z" transform="translate(-115.066 -0.043)" fill="url(#linear-gradient)"/>
        <path id="_5" d="M265.975,135.637l.236-.484.912.023.21.5.2.006L266.821,134l-.245-.006-.8,1.644.2.006Zm.615-1.262.1-.213h.015l.085.219.271.638-.77-.02.3-.624Z" transform="translate(-120.904)" fill="url(#linear-gradient)"/>
        <path id="_6" d="M275.085,136.5c.455.087.694-.093.737-.326.05-.254-.114-.414-.4-.528l-.329-.134c-.23-.1-.326-.175-.292-.359s.2-.242.522-.181c.356.07.478.224.431.461l-.006.029.175.035,0-.015c.058-.3-.1-.58-.563-.67s-.7.1-.743.318c-.052.271.137.423.394.525l.332.131c.23.093.326.181.292.364s-.2.248-.528.184c-.382-.073-.5-.23-.461-.463l.006-.032-.175-.035,0,.015c-.061.312.12.586.6.676Z" transform="translate(-127.062 -0.567)" fill="url(#linear-gradient)"/>
        <path id="_7" d="M280.276,137.542l.242-.717,1.014.341-.242.717.169.055.528-1.577-.166-.055-.236.705-1.014-.341.236-.705-.166-.055-.531,1.577Z" transform="translate(-131.058 -1.36)" fill="url(#linear-gradient)"/>
        <path id="_8" d="M286.374,139.848l.306-.606.321.16a.374.374,0,0,1,.259.353l.047.563.181.09-.05-.595a.369.369,0,0,0-.114-.28l.006-.012a.466.466,0,0,0,.668-.181c.137-.271.006-.536-.3-.694l-.726-.367-.749,1.484.157.079Zm.676-1.341.568.286c.236.12.312.274.207.484s-.277.242-.513.122l-.568-.286.306-.606Z" transform="translate(-135.387 -3.04)" fill="url(#linear-gradient)"/>
        <path id="_9" d="M291.774,142.82l.831-1.44-.154-.09-.831,1.443Z" transform="translate(-139.212 -5.172)" fill="url(#linear-gradient)"/>
        <path id="_10" d="M295.278,144.3l1.562-.93-.166-.12-1.385.837-.012-.006.341-1.583-.169-.122-.37,1.781Z" transform="translate(-141.664 -5.944)" fill="url(#linear-gradient)"/>
        <path id="_12" d="M304.024,154.151c.286.361.586.382.772.233.2-.16.184-.388.044-.656l-.163-.318c-.111-.224-.134-.347.015-.463s.309-.052.513.2c.224.286.216.481.026.63l-.023.017.111.14.012-.009c.239-.187.3-.5.012-.874s-.595-.385-.772-.245c-.216.172-.172.411-.047.656l.166.318c.111.222.128.35-.017.466s-.315.055-.522-.207c-.242-.306-.233-.5-.044-.65l.026-.02-.111-.14-.012.009c-.251.2-.291.522.012.9Z" transform="translate(-147.847 -13.275)" fill="url(#linear-gradient)"/>
        <path id="_13" d="M307.9,158.634l1.265-.813.367.577.137-.087-.834-1.3-.137.087.37.577-1.262.81Z" transform="translate(-150.683 -16.31)" fill="url(#linear-gradient)"/>
        <path id="_14" d="M309.729,165.344h.536l.382.831-.35.408.082.181,1.2-1.379-.1-.224-1.825.009.082.175Zm1.4-.006.233-.009.006.015-.157.175-.452.525-.321-.7.694,0Z" transform="translate(-151.986 -22.084)" fill="url(#linear-gradient)"/>
        <path id="_15" d="M313.014,171.072l1.8.268-.055-.2-1.6-.227,0-.012,1.262-1.011-.055-.2-1.411,1.146Z" transform="translate(-154.325 -25.294)" fill="url(#linear-gradient)"/>
        <path id="_16" d="M314.09,177.572l.513.163.108.907-.458.28.023.2,1.562-.947-.029-.245-1.74-.548.023.192Zm1.338.423.224.064,0,.015-.2.117-.592.361-.09-.764Z" transform="translate(-155.118 -30.742)" fill="url(#linear-gradient)"/>
      </g>
    </g>
  </g>
</svg>
