<svg id="Group_50" data-name="Group 50" xmlns="http://www.w3.org/2000/svg" width="31" height="31"
    viewBox="0 0 31 31">
    <g id="Layer_x0020_1" transform="translate(0 0)">
        <path id="Path_16"
            d="M19.094,14.683c-.314-.727-.642-1.452-.991-2.169A18.314,18.314,0,0,0,25.27,7.242a12.743,12.743,0,0,1,3,7.536A27.688,27.688,0,0,0,19.094,14.683Zm3.513,11.46a53.189,53.189,0,0,0-2.479-8.908,25.74,25.74,0,0,1,8.006.254A12.805,12.805,0,0,1,22.607,26.143ZM7.642,25.588A17.4,17.4,0,0,1,17.456,17.8a50.693,50.693,0,0,1,2.639,9.635,12.731,12.731,0,0,1-12.453-1.85ZM2.713,15.17a43.3,43.3,0,0,0,12.851-1.709q.451.92.865,1.85a19.939,19.939,0,0,0-10.767,8.37A12.611,12.611,0,0,1,2.713,15.17ZM9.723,4.088a57.528,57.528,0,0,1,4.568,6.951A41.062,41.062,0,0,1,3.074,12.468,12.84,12.84,0,0,1,9.723,4.088ZM23.306,5.373a15.673,15.673,0,0,1-6.442,4.752A59.476,59.476,0,0,0,12.36,3.1,12.634,12.634,0,0,1,23.306,5.373ZM15.5,0A15.5,15.5,0,1,0,31,15.5,15.5,15.5,0,0,0,15.5,0Z"
            transform="translate(0 0)" />
    </g>
</svg>
