<svg xmlns="http://www.w3.org/2000/svg" xmlns:xlink="http://www.w3.org/1999/xlink" width="80"
    height="80" viewBox="0 0 80 80">
    <defs>
        <linearGradient id="linear-gradient" y1="0.096" x2="1" y2="1"
            gradientUnits="objectBoundingBox">
            <stop offset="0" stop-color="#0bbbf3" />
            <stop offset="1" stop-color="#10f5be" />
        </linearGradient>
    </defs>
    <g id="Group_82" transform="translate(-1490 -1113)">
        <rect id="Rectangle_12" width="80" height="80" rx="10" transform="translate(1490 1113)"
            fill="url(#linear-gradient)" />
        <g id="Group_96" transform="translate(1505.629 1128.815)">
            <g id="Group_97" transform="translate(0.205)">
                <g id="Group_96-2">
                    <path id="Path_65"
                        d="M379.484,53.555a.945.945,0,0,0-.945-.945h-.005a.945.945,0,1,0,.95.945Z"
                        transform="translate(-341.939 -47.64)" fill="#fff" />
                    <path id="Path_66"
                        d="M433.425,53.555a.945.945,0,0,0-.945-.945h-.005a.945.945,0,1,0,.95.945Z"
                        transform="translate(-390.784 -47.64)" fill="#fff" />
                    <path id="Path_68"
                        d="M60.438,53.555c0,.522.248.945.554.945h8.321c.306,0,.554-.423.554-.945s-.248-.945-.554-.945H60.992C60.686,52.61,60.438,53.033,60.438,53.555Z"
                        transform="translate(-54.748 -47.64)" fill="#fff" />
                    <path id="Path_69"
                        d="M45.506,0H15.969a.945.945,0,1,0,0,1.889H45.506a1.141,1.141,0,0,1,1.141,1.139V9.94H2.094V3.028A1.14,1.14,0,0,1,3.233,1.889H15.969a.945.945,0,0,0,0-1.889H3.233A3.032,3.032,0,0,0,.2,3.028V45.339A3.033,3.033,0,0,0,3.233,48.37H45.506a3.034,3.034,0,0,0,3.031-3.031V3.028A3.033,3.033,0,0,0,45.506,0Zm0,46.481H3.233a1.141,1.141,0,0,1-1.139-1.141V11.83H46.647V45.339A1.143,1.143,0,0,1,45.506,46.481Z"
                        transform="translate(-0.205)" fill="#fff" />
                    <g id="Group_98" transform="translate(-1.773)">
                        <path id="Path_70"
                            d="M55.358,382.613a3.366,3.366,0,1,0,3.365,3.367A3.371,3.371,0,0,0,55.358,382.613Zm0,5.115a1.749,1.749,0,1,1,1.748-1.748A1.752,1.752,0,0,1,55.358,387.728Z"
                            transform="translate(-45.052 -345.898)" fill="#fff" />
                        <path id="Path_71"
                            d="M163.607,382.613a3.366,3.366,0,1,0,3.365,3.367A3.37,3.37,0,0,0,163.607,382.613Zm0,5.115a1.749,1.749,0,1,1,1.748-1.748A1.75,1.75,0,0,1,163.607,387.728Z"
                            transform="translate(-144.554 -345.898)" fill="#fff" />
                        <path id="Path_72"
                            d="M271.829,382.613a3.366,3.366,0,1,0,3.367,3.367A3.37,3.37,0,0,0,271.829,382.613Zm0,5.115a1.749,1.749,0,1,1,1.751-1.748A1.75,1.75,0,0,1,271.829,387.728Z"
                            transform="translate(-244.029 -345.898)" fill="#fff" />
                    </g>
                    <path id="Path_74"
                        d="M52,170.919a.953.953,0,0,0,.943.878H74.082a.955.955,0,0,0,.946-.945v-15.99a.945.945,0,0,0-.945-.945H52.937a.945.945,0,0,0-.945.945v15.99l0,.066Zm15.661-1.011-1.76-2.774,2.355-3.709,4.114,6.483Zm-2.238,0H54.655l5.383-8.481Zm7.72-14.1V167.6l-4.09-6.445a.945.945,0,0,0-1.6,0l-2.676,4.215-3.942-6.213a.945.945,0,0,0-.8-.439h0a.945.945,0,0,0-.8.438L53.881,167.6V155.807Z"
                        transform="translate(-46.826 -139.377)" fill="#fff" />
                    <path id="Path_75"
                        d="M328.99,155.807h10.537a.945.945,0,1,0,0-1.889H328.99a.945.945,0,1,0,0,1.889Z"
                        transform="translate(-296.073 -139.377)" fill="#fff" />
                    <path id="Path_76"
                        d="M328.99,211.223h10.537a.945.945,0,1,0,0-1.889H328.99a.945.945,0,1,0,0,1.889Z"
                        transform="translate(-296.073 -189.558)" fill="#fff" />
                    <path id="Path_77"
                        d="M328.99,266.612h10.537a.945.945,0,1,0,0-1.889H328.99a.945.945,0,1,0,0,1.889Z"
                        transform="translate(-296.073 -239.714)" fill="#fff" />
                    <path id="Path_78"
                        d="M328.99,322h10.537a.945.945,0,1,0,0-1.889H328.99a.945.945,0,1,0,0,1.889Z"
                        transform="translate(-296.073 -289.868)" fill="#fff" />
                </g>
            </g>
        </g>
    </g>
</svg>
